<svg xmlns="http://www.w3.org/2000/svg" version="1.0" preserveAspectRatio="xMidYMid meet" viewBox="235 475.7 535 114.4">

<g transform="translate(0.000000,1080.000000) scale(0.100000,-0.100000)" fill="#000000" stroke="none">
<path d="M2400 5923 c-24 -65 -45 -124 -48 -130 -3 -8 5 -13 22 -13 19 0 29 7 36 25 8 22 15 25 59 25 44 0 49 -3 55 -25 5 -18 13 -25 31 -25 31 0 31 2 -1 86 -14 38 -35 93 -46 122 -16 42 -24 52 -42 52 -20 0 -28 -15 -66 -117z m73 -41 c-34 -5 -37 1 -22 45 l12 38 17 -40 17 -40 -24 -3z"/>
<path d="M2650 5910 l0 -130 25 0 25 0 0 130 0 130 -25 0 -25 0 0 -130z"/>
<path d="M2939 5913 c-23 -71 -44 -134 -47 -140 -2 -8 4 -13 15 -13 14 0 27 25 62 128 25 70 46 133 49 140 2 7 -4 12 -16 12 -17 0 -27 -20 -63 -127z"/>
<path d="M3210 5911 l0 -131 63 0 c73 0 108 15 121 53 8 21 6 32 -11 55 -17 23 -18 29 -7 40 20 18 17 66 -5 86 -12 11 -44 19 -90 23 l-71 6 0 -132z m125 49 c0 -22 -5 -25 -37 -28 -36 -3 -38 -2 -38 28 0 30 2 31 38 28 32 -3 37 -6 37 -28z m5 -89 c13 -26 -11 -51 -51 -51 -27 0 -29 3 -29 35 0 33 2 35 35 35 24 0 37 -6 45 -19z"/>
<path d="M3539 6013 c-6 -15 -24 -62 -39 -103 -15 -41 -33 -87 -39 -102 -10 -27 -9 -28 19 -28 23 0 31 5 36 25 6 22 11 25 55 25 44 0 49 -3 55 -25 5 -19 13 -25 35 -25 16 0 29 1 29 3 0 1 -21 58 -48 127 -39 104 -51 126 -70 128 -16 3 -25 -4 -33 -25z m60 -125 c1 -5 -12 -8 -29 -8 -19 0 -28 4 -25 13 2 6 10 26 16 42 l11 30 13 -35 c8 -19 14 -38 14 -42z"/>
<path d="M3801 6027 c-36 -21 -50 -56 -51 -125 0 -57 3 -67 29 -93 40 -39 109 -41 146 -4 14 13 25 33 25 45 0 29 -34 26 -54 -5 -19 -29 -56 -33 -80 -9 -24 24 -22 118 4 144 11 11 26 20 34 20 16 0 46 -26 46 -41 0 -5 11 -9 25 -9 31 0 32 20 2 55 -27 32 -90 42 -126 22z"/>
<path d="M4027 6034 c-4 -4 -7 -63 -7 -131 l0 -123 30 0 c28 0 30 2 30 38 0 65 19 69 57 12 28 -41 39 -50 63 -50 l30 0 -26 43 c-15 23 -36 55 -46 70 l-20 28 41 53 c23 29 41 56 41 60 0 4 -12 6 -27 4 -18 -2 -41 -20 -69 -55 l-43 -52 -3 52 c-3 44 -6 52 -23 55 -12 2 -24 0 -28 -4z"/>
<path d="M4290 5910 l0 -130 85 0 c78 0 85 2 85 20 0 18 -7 20 -60 20 l-60 0 0 35 0 35 50 0 c43 0 50 3 50 20 0 17 -7 20 -50 20 -49 0 -50 1 -50 30 l0 30 60 0 c57 0 60 1 60 25 0 25 -1 25 -85 25 l-85 0 0 -130z"/>
<path d="M4530 5910 l0 -130 25 0 c25 0 25 1 25 82 l0 83 51 -83 c41 -66 55 -82 75 -82 l24 0 0 130 0 130 -25 0 c-23 0 -24 -2 -27 -82 l-3 -82 -49 82 c-39 65 -55 82 -73 82 -23 0 -23 -1 -23 -130z"/>
<path d="M4820 5909 l0 -131 66 4 c60 4 70 7 95 36 24 27 29 41 29 85 0 94 -47 137 -152 137 l-38 0 0 -131z m124 59 c27 -38 17 -117 -18 -140 -6 -4 -21 -8 -33 -8 -22 0 -23 3 -23 85 l0 85 29 0 c20 0 35 -8 45 -22z"/>
<path d="M5267 6033 c-4 -3 -7 -62 -7 -130 l0 -123 58 0 c75 0 117 25 133 79 23 77 -11 152 -79 171 -42 11 -95 13 -105 3z m117 -59 c17 -16 21 -37 17 -89 -2 -33 -33 -65 -62 -65 -17 0 -19 8 -19 85 0 83 0 85 24 85 14 0 32 -7 40 -16z"/>
<path d="M5537 6033 c-4 -3 -7 -62 -7 -130 l0 -123 85 0 c78 0 85 2 85 20 0 18 -7 20 -55 20 l-55 0 0 35 0 35 50 0 c43 0 50 3 50 20 0 17 -7 20 -50 20 -49 0 -50 1 -50 30 0 30 1 30 55 30 52 0 55 1 55 25 0 25 -1 25 -78 25 -43 0 -82 -3 -85 -7z"/>
<path d="M5751 6033 c0 -4 19 -62 43 -128 41 -116 44 -120 71 -120 28 0 31 4 72 120 23 66 42 124 42 128 1 5 -11 7 -26 5 -26 -3 -30 -11 -58 -97 l-30 -94 -30 94 c-28 86 -32 94 -57 97 -16 2 -28 0 -27 -5z"/>
<path d="M6047 6033 c-4 -3 -7 -62 -7 -130 l0 -123 85 0 c78 0 85 2 85 20 0 18 -7 20 -55 20 l-55 0 0 35 0 35 50 0 c43 0 50 3 50 20 0 17 -7 20 -50 20 -49 0 -50 1 -50 30 0 30 1 30 55 30 52 0 55 1 55 25 0 25 -1 25 -78 25 -43 0 -82 -3 -85 -7z"/>
<path d="M6280 5910 l0 -130 80 0 c73 0 80 2 80 20 0 18 -7 20 -55 20 l-55 0 0 110 0 110 -25 0 -25 0 0 -130z"/>
<path d="M6562 6027 c-50 -28 -74 -106 -52 -171 32 -98 165 -104 201 -9 44 115 -53 233 -149 180z m78 -45 c27 -22 37 -95 18 -132 -17 -31 -53 -37 -79 -14 -27 25 -27 116 1 144 25 25 32 25 60 2z"/>
<path d="M6800 5911 l0 -131 25 0 c23 0 25 4 25 44 l0 43 52 5 c38 4 57 12 70 28 25 30 23 73 -5 106 -20 23 -33 27 -95 32 l-72 5 0 -132z m128 67 c30 -30 1 -68 -52 -68 -24 0 -26 4 -26 40 0 39 1 40 33 40 18 0 38 -5 45 -12z"/>
<path d="M7070 5910 l0 -130 85 0 c78 0 85 2 85 20 0 18 -7 20 -60 20 l-60 0 0 35 0 35 50 0 c43 0 50 3 50 20 0 17 -7 20 -50 20 -49 0 -50 1 -50 30 0 28 1 29 58 32 49 3 57 6 57 23 0 18 -8 20 -82 23 l-83 3 0 -131z"/>
<path d="M7307 6033 c-4 -3 -7 -62 -7 -130 l0 -123 30 0 c29 0 30 2 30 45 0 38 3 45 20 45 14 0 27 -14 42 -45 18 -37 27 -45 50 -45 15 0 28 2 28 4 0 2 -12 25 -26 50 l-26 47 21 23 c41 44 23 109 -37 126 -42 11 -115 13 -125 3z m128 -78 c0 -27 -3 -30 -37 -33 -38 -3 -38 -3 -38 33 0 36 0 36 38 33 34 -3 37 -6 37 -33z"/>
<path d="M5080 5890 c0 -17 7 -20 50 -20 43 0 50 3 50 20 0 17 -7 20 -50 20 -43 0 -50 -3 -50 -20z"/>
<path d="M2350 5385 l0 -55 65 0 65 0 0 -215 0 -215 60 0 60 0 0 215 0 215 66 0 65 0 -3 53 -3 52 -187 3 -188 2 0 -55z"/>
<path d="M2840 5170 l0 -270 60 0 60 0 0 270 0 270 -60 0 -60 0 0 -270z"/>
<path d="M3100 5170 l0 -270 155 0 155 0 0 55 0 55 -95 0 -95 0 0 215 0 215 -60 0 -60 0 0 -270z"/>
<path d="M3730 5436 c0 -6 126 -453 141 -503 11 -33 11 -33 78 -33 l67 0 39 138 c21 75 41 140 45 145 3 4 24 -57 47 -135 l40 -143 69 0 68 0 72 250 c40 138 73 258 73 268 1 14 -8 17 -63 17 l-64 0 -42 -172 c-24 -95 -46 -178 -49 -185 -4 -7 -28 71 -55 173 l-49 185 -46 -3 -45 -3 -41 -155 c-23 -85 -45 -168 -50 -185 -7 -25 -15 -2 -54 155 l-47 185 -67 3 c-37 2 -67 1 -67 -2z"/>
<path d="M4570 5170 l0 -270 60 0 60 0 0 270 0 270 -60 0 -60 0 0 -270z"/>
<path d="M4838 5434 c-5 -4 -8 -126 -8 -271 l0 -263 98 0 c134 0 191 18 253 80 80 80 101 208 51 306 -27 52 -87 109 -137 130 -43 18 -244 32 -257 18z m221 -133 c49 -34 66 -68 66 -129 -1 -90 -47 -149 -126 -159 l-39 -6 0 163 0 162 38 -6 c20 -4 48 -15 61 -25z"/>
<path d="M5396 5398 c-3 -24 -12 -124 -21 -223 -8 -99 -18 -201 -21 -227 l-6 -48 60 0 c71 0 67 -8 78 165 4 61 9 118 13 127 4 11 26 -41 60 -138 l54 -155 35 3 36 3 52 149 c29 81 55 150 57 152 2 3 7 -33 11 -78 4 -46 9 -116 13 -155 l6 -73 58 0 c57 0 59 1 59 26 0 39 -40 487 -45 502 -3 8 -25 12 -65 12 -70 0 -53 24 -135 -189 l-48 -124 -60 157 -60 156 -63 0 -63 0 -5 -42z"/>
<path d="M6211 5418 c-5 -13 -54 -135 -109 -271 l-101 -248 67 3 67 3 19 53 19 52 103 0 103 0 17 -55 18 -55 67 0 67 0 -108 268 -109 267 -55 3 c-51 3 -57 1 -65 -20z m93 -222 c14 -37 26 -72 26 -77 0 -5 -25 -9 -55 -9 -30 0 -55 3 -55 8 0 11 52 153 56 150 1 -2 14 -34 28 -72z"/>
<path d="M6637 5433 c-4 -3 -7 -125 -7 -270 l0 -263 65 0 65 0 2 161 3 161 101 -158 101 -159 62 -3 61 -3 0 271 0 270 -60 0 -60 0 -2 -165 -3 -165 -105 165 -105 165 -56 0 c-31 0 -59 -3 -62 -7z"/>
<path d="M7240 5170 l0 -270 60 0 60 0 0 167 0 167 106 -167 107 -167 64 0 63 0 -2 268 -3 267 -60 0 -60 0 -3 -164 -3 -164 -106 166 -106 167 -58 0 -59 0 0 -270z"/>
</g>
</svg>